<?xml version="1.0" standalone="no"?><!DOCTYPE svg PUBLIC "-//W3C//DTD SVG 1.1//EN" "http://www.w3.org/Graphics/SVG/1.1/DTD/svg11.dtd"><svg t="1594982954841" class="icon" viewBox="0 0 1024 1024" version="1.1" xmlns="http://www.w3.org/2000/svg" p-id="2813" width="32" height="32" xmlns:xlink="http://www.w3.org/1999/xlink"><defs><style type="text/css"></style></defs><path d="M526.848 942.592c-247.296 0-447.488-200.192-447.488-447.488 0-190.976 119.808-353.28 287.744-417.792v69.12C235.008 207.36 143.36 340.48 143.36 495.104c0 211.968 171.52 383.488 383.488 383.488 211.968 0 383.488-171.52 383.488-383.488 0-154.624-91.648-287.744-223.744-348.16V77.312c167.936 64.512 287.744 226.816 287.744 417.792 0 247.296-200.192 447.488-447.488 447.488zM495.104 47.616h64v448.512H495.104V47.616z" fill="#ffffff" p-id="2814"></path><path d="M495.104 47.616h64v448.512H495.104V47.616z" fill="#ffffff" p-id="2815"></path></svg>