<?xml version="1.0" standalone="no"?><!DOCTYPE svg PUBLIC "-//W3C//DTD SVG 1.1//EN" "http://www.w3.org/Graphics/SVG/1.1/DTD/svg11.dtd"><svg t="1597638105490" class="icon" viewBox="0 0 1024 1024" version="1.1" xmlns="http://www.w3.org/2000/svg" p-id="2986" xmlns:xlink="http://www.w3.org/1999/xlink" width="32" height="32"><defs><style type="text/css"></style></defs><path d="M622.304 699.056a36 36 0 0 1 36 36v103.36a36 36 0 1 1-72 0v-103.36a36 36 0 0 1 36-36zM339.312 450.768a36 36 0 0 1 50.976 50.832l-141.744 142.144a92 92 0 0 0 0 130.112 91.968 91.968 0 0 0 130 0.112l138.848-140.096a36 36 0 1 1 51.136 50.672l-138.96 140.224c-64.048 64.048-167.888 64.048-231.936 0S133.6 656.88 197.6 592.864z m370.848 259.04a36 36 0 0 1 50.912-0.16l76.256 75.808a36 36 0 0 1-50.752 51.072l-76.256-75.792a36 36 0 0 1-0.16-50.912z m128.992-124.736a36 36 0 1 1 0 72h-105.024a36 36 0 1 1 0-72zM599.232 192.832c64.048-64.048 167.888-64.048 231.936 0s64.048 167.888 0.112 231.824l-146.16 147.408a36 36 0 0 1-51.136-50.688l146.272-147.52a92 92 0 1 0-130.208-130.016l-146.752 145.6a36 36 0 1 1-50.72-51.104zM289.152 364a36 36 0 1 1 0 72h-105.04a36 36 0 0 1 0-72z m112.8-215.952a36 36 0 0 1 36 36v103.344a36 36 0 1 1-72 0v-103.344a36 36 0 0 1 36-36z m-216.4 38.272a36 36 0 0 1 50.912-0.624l77.824 75.92a36 36 0 1 1-50.288 51.536l-77.824-75.92a36 36 0 0 1-0.64-50.912z" fill="#ffffff" opacity=".65" p-id="2987"></path></svg>