<?xml version="1.0" standalone="no"?><!DOCTYPE svg PUBLIC "-//W3C//DTD SVG 1.1//EN" "http://www.w3.org/Graphics/SVG/1.1/DTD/svg11.dtd"><svg t="1594900022810" class="icon" viewBox="0 0 1087 1024" version="1.1" xmlns="http://www.w3.org/2000/svg" p-id="3909" xmlns:xlink="http://www.w3.org/1999/xlink" width="67.9375" height="64"><defs><style type="text/css"></style></defs><path d="M1086.589848 743.39024c0-1.169904-0.584952-2.172678-0.668516-3.259018a41.197323 41.197323 0 0 0-11.699037-32.172351L835.311245 469.047821a41.782275 41.782275 0 1 0-59.080137 59.080137l173.480007 173.480007H41.86584a41.782275 41.782275 0 0 0 0 83.56455h901.912192l-167.129101 167.129101a41.782275 41.782275 0 0 0 59.080137 59.080137l238.075404-238.242533a41.782275 41.782275 0 0 0 12.785376-29.74898zM0 286.709972c0-1.169904 0.584952-2.172678 0.668516-3.259017a41.197323 41.197323 0 0 1 11.699037-32.172352L251.278603 12.200424a41.782275 41.782275 0 0 1 59.080137 59.080137L136.878733 244.927697h907.845275a41.782275 41.782275 0 0 1 0 83.56455H142.811817l167.1291 167.129101a41.782275 41.782275 0 0 1-59.080137 59.080137L12.534683 316.291823A41.782275 41.782275 0 0 1 0 286.709972z" fill="#1296db" p-id="3910"></path></svg>