<?xml version="1.0" standalone="no"?><!DOCTYPE svg PUBLIC "-//W3C//DTD SVG 1.1//EN" "http://www.w3.org/Graphics/SVG/1.1/DTD/svg11.dtd"><svg t="1595036684001" class="icon" viewBox="0 0 1024 1024" version="1.1" xmlns="http://www.w3.org/2000/svg" p-id="4134" xmlns:xlink="http://www.w3.org/1999/xlink" width="32" height="32"><defs><style type="text/css"></style></defs><path d="M906.24 0H117.76C81.92 0 51.2 25.6 51.2 61.44v901.12c0 35.84 30.72 61.44 66.56 61.44h353.28c15.36 0 25.6-10.24 25.6-25.6s-10.24-25.6-25.6-25.6H117.76c-5.12 0-10.24-5.12-10.24-5.12V61.44c0-5.12 5.12-5.12 10.24-5.12h793.6c5.12 0 10.24 5.12 10.24 5.12v404.48c0 15.36 10.24 25.6 25.6 25.6s25.6-10.24 25.6-25.6V61.44C972.8 25.6 942.08 0 906.24 0z" p-id="4135" fill="#ffffff"></path><path d="M481.28 373.76H215.04c-15.36 0-25.6 10.24-25.6 25.6s10.24 25.6 25.6 25.6h261.12c15.36 0 25.6-10.24 25.6-25.6 5.12-15.36-5.12-25.6-20.48-25.6zM215.04 588.8c-15.36 0-25.6 10.24-25.6 25.6s10.24 25.6 25.6 25.6h204.8c15.36 0 25.6-10.24 25.6-25.6s-10.24-25.6-25.6-25.6h-204.8z m0-378.88h384c15.36 0 25.6-10.24 25.6-25.6s-10.24-25.6-25.6-25.6h-384c-15.36 0-25.6 10.24-25.6 25.6s10.24 25.6 25.6 25.6zM947.2 655.36l-40.96 15.36 5.12 10.24c10.24 25.6 15.36 51.2 15.36 76.8 0 102.4-87.04 189.44-189.44 189.44-15.36 0-35.84 0-51.2-5.12l20.48-35.84-128 5.12 71.68 107.52 20.48-40.96c20.48 5.12 46.08 10.24 71.68 10.24 128 0 230.4-102.4 230.4-230.4 0-35.84-5.12-66.56-20.48-97.28l-5.12-5.12zM583.68 870.4c-20.48-30.72-30.72-66.56-30.72-107.52 0-102.4 87.04-189.44 189.44-189.44 25.6 0 46.08 5.12 71.68 15.36l-20.48 40.96h128L849.92 512l-20.48 35.84c-30.72-10.24-61.44-20.48-92.16-20.48-128 0-230.4 102.4-230.4 230.4 0 46.08 15.36 92.16 40.96 128l5.12 10.24 35.84-25.6h-5.12z" p-id="4136" fill="#ffffff"></path><path d="M670.72 880.64l204.8-117.76-204.8-117.76v235.52zM716.8 716.8l76.8 46.08-76.8 40.96V716.8z" p-id="4137" fill="#ffffff"></path></svg>