<?xml version="1.0" standalone="no"?><!DOCTYPE svg PUBLIC "-//W3C//DTD SVG 1.1//EN" "http://www.w3.org/Graphics/SVG/1.1/DTD/svg11.dtd"><svg t="1597642271296" class="icon" viewBox="0 0 1024 1024" version="1.1" xmlns="http://www.w3.org/2000/svg" p-id="3799" xmlns:xlink="http://www.w3.org/1999/xlink" width="32" height="32"><defs><style type="text/css"></style></defs><path d="M1015.502 543.867c-31.159-58.069-73.649-109.056-121.804-151.546l100.56-100.559c14.162-14.163 14.162-36.824 0-49.571s-36.825-14.163-49.572 0L835.629 348.415c-46.738-29.743-96.31-53.82-150.13-69.4l29.743-157.211c4.249-19.829-8.498-38.241-28.326-41.074-18.413-2.832-38.241 8.498-41.074 28.327L616.1 263.436c-29.743-4.25-59.486-7.082-90.645-7.082s-62.318 2.833-92.06 7.082L403.65 110.473c-4.249-19.828-22.66-31.159-41.073-28.326-19.828 4.249-31.159 22.66-28.326 41.073l29.742 157.212c-55.236 15.58-106.224 39.657-152.962 70.816L100.559 240.775c-14.163-14.164-36.825-14.164-49.571 0s-14.164 36.824 0 49.57l103.391 103.392c-48.155 42.49-89.228 92.061-118.971 148.714l-8.498 16.996 8.498 16.996c94.894 177.04 281.848 286.096 490.047 286.096s395.154-109.056 490.047-286.096l8.498-16.996-8.498-15.58zM525.455 791.723c-175.624 0-332.835-87.812-417.815-232.276C192.62 416.398 351.248 327.17 525.455 327.17S858.29 414.982 943.27 559.447C858.29 703.91 699.663 791.723 525.455 791.723z" p-id="3800" fill="#ffffff"></path><path d="M525.455 383.823c-97.726 0-175.624 79.314-175.624 175.624s77.898 177.04 175.624 177.04 175.624-79.314 175.624-175.624-79.314-177.04-175.624-177.04z m0 281.848c-58.07 0-104.808-46.739-104.808-104.808s46.739-104.808 104.808-104.808 104.808 46.739 104.808 104.808-46.739 104.808-104.808 104.808z" p-id="3801" fill="#ffffff"></path></svg>