<?xml version="1.0" standalone="no"?><!DOCTYPE svg PUBLIC "-//W3C//DTD SVG 1.1//EN" "http://www.w3.org/Graphics/SVG/1.1/DTD/svg11.dtd"><svg t="1595672021505" class="icon" viewBox="0 0 1024 1024" version="1.1" xmlns="http://www.w3.org/2000/svg" p-id="9387" xmlns:xlink="http://www.w3.org/1999/xlink" width="32" height="32"><defs><style type="text/css"></style></defs><path d="M853.3248 0.4608H170.752C76.416 0.5376 0 76.4416 0.0512 170.0096v678.016c0 93.568 76.3904 169.472 170.7008 169.6h205.7472a42.5216 42.5216 0 0 0 42.4192-42.0864 42.5216 42.5216 0 0 0-42.368-42.0864H170.752a85.6576 85.6576 0 0 1-60.3648-24.7808 84.3008 84.3008 0 0 1-24.9856-59.8528V170.6752c0-46.7968 38.2208-84.736 85.376-84.7872h682.5728c47.104 0 85.376 37.9392 85.376 84.7616v255.872a41.8048 41.8048 0 0 0 42.9568 40.3968 42.3168 42.3168 0 0 0 42.2912-42.0864V170.0096C1024 76.4672 947.6096 0.5888 853.3248 0.4608z" fill="#ffffff" p-id="9388"></path><path d="M257.6896 266.624h408.0384c19.84 0 36.096-17.1008 36.096-38.016 0-20.992-16.256-38.0672-36.096-38.0672H257.6896c-19.84 0-35.968 17.1008-35.968 38.0672 0 20.9152 16.128 38.016 35.968 38.016z m301.44 92.8768H257.6896c-19.84 0-35.968 17.1008-35.968 38.0672 0 20.9152 16.128 38.016 35.968 38.016h301.3632c19.8656 0 36.0448-17.1008 36.0448-38.016 0-20.992-16.1792-38.0672-35.968-38.0672z m-106.7264 168.96h-194.7136c-19.84 0-35.968 17.0752-35.968 38.0672 0 20.864 16.128 38.0672 35.968 38.0672h194.7136c19.7888 0 36.0448-17.2032 36.0448-38.0672 0.0512-20.9152-16.2048-38.0672-36.0448-38.0672z m548.2496 109.312c-14.9504-14.8992-38.528-15.6928-52.608-1.7664l-135.9872 134.9632-136.0128-134.9632c-14.0544-13.7984-37.6832-13.1328-52.608 1.7664-14.9504 14.8224-15.616 38.1952-1.6384 52.1216L757.76 824.832l-135.9104 134.8096c-14.0288 13.9264-13.312 37.4528 1.5872 52.2752 14.848 14.848 38.6304 15.5392 52.608 1.6128l135.936-134.9632 136.064 134.9632c14.08 13.9264 37.5808 13.1584 52.608-1.6128 15.0016-14.7712 15.7184-38.2208 1.5616-52.2752l-135.9104-134.8096 136.0384-134.9632c14.1568-14.0544 13.312-37.2992-1.6896-52.1216z" fill="#ffffff" p-id="9389"></path></svg>