<?xml version="1.0" standalone="no"?><!DOCTYPE svg PUBLIC "-//W3C//DTD SVG 1.1//EN" "http://www.w3.org/Graphics/SVG/1.1/DTD/svg11.dtd"><svg t="1594804249130" class="icon" viewBox="0 0 1024 1024" version="1.1" xmlns="http://www.w3.org/2000/svg" p-id="3138" xmlns:xlink="http://www.w3.org/1999/xlink" width="32" height="32"><defs><style type="text/css"></style></defs><path d="M511.546501 74.373782c119.723649 0 229.470328 48.977857 308.379097 127.886625s126.979628 187.74845 126.979628 308.379097-48.070859 229.470328-126.979628 308.379097-188.655447 127.886625-308.379097 127.886625c-120.630647 0-229.470328-48.977857-308.379096-127.886625S75.280779 631.270151 75.280779 510.639504s48.977857-229.470328 127.886626-308.379097S390.915855 74.373782 511.546501 74.373782z m243.982286 192.283437c-62.582817-62.582817-148.747564-101.583702-243.982286-101.583703-96.141718 0-182.306466 39.000886-244.889282 101.583703S165.980514 415.404783 165.980514 510.639504s38.093888 181.399469 100.676705 243.982285 148.747564 101.583702 244.889282 101.583703c95.234721 0 181.399469-39.000886 243.982286-101.583703s100.676705-148.747564 100.676705-243.982285-38.093888-181.399469-100.676705-243.982285z" p-id="3139"></path><path d="M289.332152 513.360496c-18.139947-17.23295-18.139947-46.256864 0-63.489814 17.23295-18.139947 46.256864-18.139947 64.396812 0l117.002657 117.002657 202.260407-201.35341c17.23295-18.139947 46.256864-18.139947 63.489814 0 18.139947 17.23295 18.139947 46.256864 0 63.489814L502.476528 663.015058c-17.23295 18.139947-46.256864 18.139947-63.489814 0L289.332152 513.360496z" p-id="3140"></path></svg>