<?xml version="1.0" standalone="no"?><!DOCTYPE svg PUBLIC "-//W3C//DTD SVG 1.1//EN" "http://www.w3.org/Graphics/SVG/1.1/DTD/svg11.dtd"><svg t="1594983092867" class="icon" viewBox="0 0 1024 1024" version="1.1" xmlns="http://www.w3.org/2000/svg" p-id="3882" xmlns:xlink="http://www.w3.org/1999/xlink" width="32" height="32"><defs><style type="text/css"></style></defs><path d="M948.105051 77.317172c-13.058586-13.058586-34.391919-13.058586-47.321213 0l-113.90707 113.777777L717.317172 121.535354c-13.187879-13.187879-34.779798-13.187879-47.838384 0-13.187879 13.187879-13.187879 34.779798 0 47.838383l69.559596 69.559596-96.452525 96.452526-162.39192-162.39192c-13.187879-13.187879-34.779798-13.187879-47.838383 0-13.187879 13.187879-13.187879 34.779798 0 47.838384l162.391919 162.391919-100.848485 100.848485c-44.993939-35.426263-101.753535-56.371717-163.555556-56.371717-146.359596 0-265.050505 118.690909-265.050505 265.050505 0 146.10101 118.173737 264.533333 264.145455 265.050505 0.775758 0.129293 1.680808 0.129293 2.456565 0.129293 18.618182 0 33.616162-14.99798 33.616162-33.486869 0-18.488889-15.127273-33.486869-33.616162-33.486868h-1.810101c-109.381818 0-198.076768-88.694949-198.076767-198.076768s88.694949-198.076768 198.076767-198.076768S528.290909 583.240404 528.290909 692.751515c0 25.987879-4.913131 50.812121-14.092929 73.567677-2.715152 4.913131-4.266667 10.472727-4.266667 16.290909 0 18.488889 15.127273 33.486869 33.616162 33.486869 14.739394 0 27.280808-9.438384 31.80606-22.626263 12.8-31.159596 19.911111-65.034343 19.911111-100.719192 0-60.509091-20.29899-116.234343-54.432323-160.969697l125.026263-125.026262L810.149495 262.464646 948.105051 124.638384c13.058586-13.058586 13.058586-34.391919 0-47.321212z m0 0" fill="#ffffff" p-id="3883"></path><path d="M425.890909 885.139394c0 18.488889 14.99798 33.486869 33.616162 33.486869s33.616162-14.99798 33.616161-33.486869c0-18.488889-14.99798-33.486869-33.616161-33.486869s-33.616162 14.99798-33.616162 33.486869z m0 0" fill="#ffffff" p-id="3884"></path></svg>