<?xml version="1.0" standalone="no"?><!DOCTYPE svg PUBLIC "-//W3C//DTD SVG 1.1//EN" "http://www.w3.org/Graphics/SVG/1.1/DTD/svg11.dtd"><svg t="1595036636092" class="icon" viewBox="0 0 1097 1024" version="1.1" xmlns="http://www.w3.org/2000/svg" p-id="3326" xmlns:xlink="http://www.w3.org/1999/xlink" width="34.28125" height="32"><defs><style type="text/css"></style></defs><path d="M585.142857 58.514286c248.685714 0 453.485714 204.8 453.485714 453.485714s-204.8 453.485714-453.485714 453.485714c-65.828571 0-131.657143-14.628571-182.857143-36.571428-14.628571-7.314286-29.257143-29.257143-21.942857-43.885715V877.714286c7.314286-21.942857 29.257143-29.257143 51.2-21.942857 43.885714 21.942857 102.4 36.571429 153.6 36.571428 204.8 0 380.342857-168.228571 380.342857-380.342857S789.942857 131.657143 585.142857 131.657143 204.8 307.2 204.8 512h95.085714L175.542857 709.485714 43.885714 512h87.771429C131.657143 263.314286 336.457143 58.514286 585.142857 58.514286z m0 321.828571c73.142857 0 131.657143 58.514286 131.657143 131.657143S658.285714 643.657143 585.142857 643.657143 453.485714 585.142857 453.485714 512 512 380.342857 585.142857 380.342857z" p-id="3327" fill="#ffffff"></path></svg>