<?xml version="1.0" standalone="no"?><!DOCTYPE svg PUBLIC "-//W3C//DTD SVG 1.1//EN" "http://www.w3.org/Graphics/SVG/1.1/DTD/svg11.dtd"><svg t="1594898925354" class="icon" viewBox="0 0 1024 1024" version="1.1" xmlns="http://www.w3.org/2000/svg" p-id="2933" width="64" height="64" xmlns:xlink="http://www.w3.org/1999/xlink"><defs><style type="text/css"></style></defs><path d="M512 955.733333A443.733333 443.733333 0 1 1 512 68.010667 443.733333 443.733333 0 0 1 512 955.733333M512 0a512 512 0 1 0 0 1024A512 512 0 0 0 512 0m235.52 469.333333H546.730667V248.490667c0-14.421333-11.093333-24.490667-36.010667-25.856-24.832-1.450667-36.010667 11.349333-36.010667 25.856v220.672H262.4s-40.106667-3.669333-40.106667 28.928c0 43.776 17.152 43.690667 31.573334 43.690666h220.757333L474.453333 773.290667c0 18.090667-3.754667 42.069333 33.706667 42.069333 39.424 0 37.546667-36.266667 37.546667-44.8l0.938666-228.693333h200.96c9.216 0 44.714667 2.56 45.226667-37.973334 0.512-40.533333-45.312-34.645333-45.312-34.645333" fill="#3CA4FB" p-id="2934"></path></svg>