<?xml version="1.0" standalone="no"?><!DOCTYPE svg PUBLIC "-//W3C//DTD SVG 1.1//EN" "http://www.w3.org/Graphics/SVG/1.1/DTD/svg11.dtd"><svg t="1594892748449" class="icon" viewBox="0 0 1024 1024" version="1.1" xmlns="http://www.w3.org/2000/svg" p-id="2187" xmlns:xlink="http://www.w3.org/1999/xlink" width="32" height="32"><defs><style type="text/css"></style></defs><path d="M294.81984 783.0784l18.6368-24.064-32.4096 65.59744a17.33632 17.33632 0 0 0 11.08992 24.4224l57.28768 15.3088a17.408 17.408 0 0 0 16.57344-4.28544 470.8864 470.8864 0 0 0 43.43296-46.36672l18.65728-24.064-32.43008 65.59744a17.3312 17.3312 0 0 0 11.08992 24.4224l81.01376 21.6576a17.408 17.408 0 0 0 16.57344-4.29056 469.82656 469.82656 0 0 0 43.41248-46.3616l18.65728-24.064-32.42496 65.59232a17.33632 17.33632 0 0 0 11.1104 24.44288l69.15072 18.49344a17.408 17.408 0 0 0 16.57344-4.28544 470.21568 470.21568 0 0 0 43.41248-46.3872l18.6624-24.0384-32.4096 65.66912a17.33632 17.33632 0 0 0 11.10528 24.41216L754.45248 972.8l3.6864-0.19968a105.91232 105.91232 0 0 0 42.04032-12.25216 93.4144 93.4144 0 0 0 50.04288-74.84928c2.048-17.7152 4.608-36.864 8.05888-60.77952 1.57696-10.752 2.82624-19.13856 5.97504-40.01792 10.5984-70.144 14.03392-96.65024 16.43008-127.87712l0.90112-11.83744 2.71872-2.79552 11.8272-1.28512a40.12544 40.12544 0 0 0 23.79264-10.752 41.472 41.472 0 0 0 10.63936-40.3712l-36.00896-164.10624a80.31744 80.31744 0 0 0-22.20032-38.09792 88.30976 88.30976 0 0 0-38.25664-22.8608l-108.5952-29.04064-2.17088-3.75296 50.71872-188.68736c7.97696-29.696-11.264-60.9792-43.12576-69.49376l-76.25216-20.38784c-31.83104-8.50944-64.1792 8.96-72.192 38.67648l-50.688 188.71296-3.7632 2.16064-113.25952-30.26944a88.3712 88.3712 0 0 0-44.60032 0.7168 80.44544 80.44544 0 0 0-38.31808 21.9392l-113.46944 124.16a41.6 41.6 0 0 0-11.02336 40.2688c3.98848 13.61408 15.20128 24.09984 31.54944 29.184l13.05088 4.096 2.048 3.712-3.4816 13.20448c-20.2496 76.38528-50.71872 130.97472-82.20672 144.34304-45.568 19.32288-69.94432 47.2832-75.20256 81.34656-4.82816 31.26272 8.89856 64.19968 36.0448 87.552l21.13536 7.97696 71.60832 19.14368a41.00608 41.00608 0 0 0 39.5264-10.5728 414.76608 414.76608 0 0 0 33.41312-36.62848z m528.78848-379.35616c13.55776 3.63008 28.7232 18.36544 31.42144 30.60736l33.14176 150.9376a10.24 10.24 0 0 1-12.65152 12.04224L262.29248 433.4336a10.19392 10.19392 0 0 1-4.91008-16.73728l104.3456-114.176c8.46336-9.26208 28.98944-14.4896 42.55232-10.8544l135.54176 36.224a20.48 20.48 0 0 0 25.0624-14.42816l55.91552-208.19968a20.48 20.48 0 0 1 25.088-14.42816l73.86624 19.75808a20.40832 20.40832 0 0 1 14.45376 24.9856l-55.92576 208.2048a20.39808 20.39808 0 0 0 14.464 24.97536l130.86208 34.97984z m-489.56928 286.1568q-48.42496 64.77312-88.99584 97.38752l-5.66784 4.56704-2.72384 0.57344-84.48-23.04-2.80064-3.072c-12.50304-13.54752-18.57536-29.696-16.28672-44.544 3.1488-20.40832 21.15072-37.62688 51.0208-50.29888 30.42304-12.9024 57.344-45.056 79.52384-95.57504a525.54752 525.54752 0 0 0 25.30304-73.26208l3.72736-13.77792 3.74272-2.16064 542.95552 145.08032 2.24768 3.16416-0.75264 11.68896c-1.90464 29.26592-29.09184 219.44832-30.81216 234.28096a52.46976 52.46976 0 0 1-26.47552 42.4704 69.9904 69.9904 0 0 1-20.52096 7.75168l-4.80768 0.69632-57.89696-15.46752 10.752-19.40992q11.91424-21.504 41.32864-82.85184a20.17792 20.17792 0 0 0-9.5488-26.93632l-3.01056-1.42848a20.48 20.48 0 0 0-25.18528 6.20032q-48.39936 64.65024-88.87296 97.14176l-5.66784 4.55168-2.71872 0.56832-50.39616-13.4656 10.66496-19.38944q5.12-9.30816 10.02496-18.76992 10.12224-19.38432 31.2576-63.91808a20.34688 20.34688 0 0 0-9.5744-27.0848l-2.90816-1.38752a20.48 20.48 0 0 0-25.28768 6.144q-48.32768 64.5888-88.81152 97.0752l-5.66272 4.55168-2.72384 0.57344-49.97632-13.34784 10.65984-19.38432q4.66432-8.45312 10.02496-18.77504 10.06592-19.31264 31.54944-64.512a20.02944 20.02944 0 0 0-9.69728-26.79296l-3.18976-1.46944a20.48 20.48 0 0 0-25.00096 6.3232q-48.39936 64.66048-88.98048 97.28l-5.66784 4.55168-2.71872 0.56832-31.3088-8.35584 10.63936-19.36384q5.12-9.33888 10.02496-18.77504 10.04032-19.34848 31.52896-64.512a20.1216 20.1216 0 0 0-9.6512-26.8544l-3.10784-1.44896a20.48 20.48 0 0 0-25.088 6.26688z m0 0" p-id="2188"></path></svg>