<?xml version="1.0" standalone="no"?><!DOCTYPE svg PUBLIC "-//W3C//DTD SVG 1.1//EN" "http://www.w3.org/Graphics/SVG/1.1/DTD/svg11.dtd"><svg t="1595666744874" class="icon" viewBox="0 0 1024 1024" version="1.1" xmlns="http://www.w3.org/2000/svg" p-id="2856" xmlns:xlink="http://www.w3.org/1999/xlink" width="32" height="32"><defs><style type="text/css"></style></defs><path d="M869.5296 0.9728H153.6A153.6 153.6 0 0 0 0 154.2656v715.2128a153.6 153.6 0 0 0 153.6 153.2928h715.9296a153.6 153.6 0 0 0 153.6-153.2928V154.2656a153.6 153.6 0 0 0-153.6-153.2928z m-96.1536 71.168v359.8336H249.7536V72.1408z m178.432 797.3376a81.92 81.92 0 0 1-82.2784 81.92H153.6a81.92 81.92 0 0 1-82.2272-81.92V154.2656A82.2784 82.2784 0 0 1 153.6 72.1408h24.8832v395.5712a35.3792 35.3792 0 0 0 35.84 35.4304H808.96a35.3792 35.3792 0 0 0 35.84-35.4304V72.1408h24.9856a82.2784 82.2784 0 0 1 82.2784 81.92zM648.8576 355.6864a35.84 35.84 0 0 0 35.84-35.84V173.2608a35.84 35.84 0 0 0-71.3216 0v146.688a35.84 35.84 0 0 0 35.5328 35.84zM256 657.8176h511.488a36.5056 36.5056 0 1 1 0 73.0112H256a36.5056 36.5056 0 1 1 0-73.0112z m0 0" p-id="2857" fill="#ffffff"></path></svg>