<?xml version="1.0" standalone="no"?><!DOCTYPE svg PUBLIC "-//W3C//DTD SVG 1.1//EN" "http://www.w3.org/Graphics/SVG/1.1/DTD/svg11.dtd"><svg t="1596953972077" class="icon" viewBox="0 0 1024 1024" version="1.1" xmlns="http://www.w3.org/2000/svg" p-id="5031" xmlns:xlink="http://www.w3.org/1999/xlink" width="32" height="32"><defs><style type="text/css"></style></defs><path d="M93.184 680.448h384v64.512h47.104v134.144H41.984v-134.144h51.2v-64.512z m883.712-168.96L958.464 286.72l-132.608 140.288-154.112 19.968-45.568 26.112 33.28 16.896-5.12 10.24-72.704-32.256 7.168-14.848-54.272-25.6-7.68 15.872-29.184-12.8 15.36-32.256-49.664-23.552 33.28-71.68 22.528 10.752 19.456-41.472-233.472-110.08-19.456 41.472 22.528 10.752-44.544 94.72-18.944-8.704-38.4 81.92 18.944 8.704-54.272 117.248-22.528-10.752-19.456 41.472 233.472 109.568 19.456-41.472-22.528-10.752 38.4-81.408 49.664 23.552 15.872-33.792 28.672 14.336-8.192 16.896 54.272 25.6 7.68-15.872 67.584 33.792-11.776 22.528-16.384 28.672 36.864 30.208 19.456-14.336 3.072 28.672 40.448 15.872 19.968-27.136 5.12 31.744 45.056 20.992 18.432-28.672 4.608 2.56 2.048 26.112 38.912 17.92 17.408-14.848 18.944-19.456 57.344 28.672c28.16-25.088 44.544-55.296 44.032-94.208l-26.112-11.776 2.048-2.048 25.088-88.576 18.944-20.992zM276.48 421.376l-15.36 32.256-34.304 72.704-32.768-15.36 34.304-72.704 14.848-32.256 83.456-178.176 32.768 15.36L276.48 421.376z" fill="#ffffff" p-id="5032"></path></svg>